<?xml version="1.0" encoding="UTF-8" standalone="no"?>
<svg
   xmlns:dc="http://purl.org/dc/elements/1.1/"
   xmlns:cc="http://creativecommons.org/ns#"
   xmlns:rdf="http://www.w3.org/1999/02/22-rdf-syntax-ns#"
   xmlns:svg="http://www.w3.org/2000/svg"
   xmlns="http://www.w3.org/2000/svg"
   xmlns:sodipodi="http://sodipodi.sourceforge.net/DTD/sodipodi-0.dtd"
   xmlns:inkscape="http://www.inkscape.org/namespaces/inkscape"
   viewBox="0 0 100 100"
   version="1.1"
   x="0px"
   y="0px"
   id="svg4239"
   inkscape:version="0.91 r13725"
   sodipodi:docname="arrow_left.svg"
   width="100"
   height="100">
  <metadata
     id="metadata4257">
    <rdf:RDF>
      <cc:Work
         rdf:about="">
        <dc:format>image/svg+xml</dc:format>
        <dc:type
           rdf:resource="http://purl.org/dc/dcmitype/StillImage" />
        <dc:title>tool-12 copy 3</dc:title>
      </cc:Work>
    </rdf:RDF>
  </metadata>
  <defs
     id="defs4255" />
  <sodipodi:namedview
     pagecolor="#ffffff"
     bordercolor="#666666"
     borderopacity="1"
     objecttolerance="10"
     gridtolerance="10"
     guidetolerance="10"
     inkscape:pageopacity="0"
     inkscape:pageshadow="2"
     inkscape:window-width="1886"
     inkscape:window-height="1159"
     id="namedview4253"
     showgrid="false"
     inkscape:zoom="7.624"
     inkscape:cx="50"
     inkscape:cy="62.5"
     inkscape:window-x="0"
     inkscape:window-y="0"
     inkscape:window-maximized="0"
     inkscape:current-layer="g4245" />
  <title
     id="title4241">tool-12 copy 3</title>
  <desc
     id="desc4243">Created with Sketch.</desc>
  <g
     id="g4245"
     style="fill:none;fill-rule:evenodd;stroke:none;stroke-width:1"
     transform="translate(0,0.1248)">
    <path
       d="m 41.394545,14.2103 c 4.27091,-4.2804 11.20091,-4.2804 15.471819,0 4.270909,4.2804 4.270909,11.2258 0,15.5062 l -8.983637,9.0036 34.584546,0 c 6.046363,0 10.939091,4.9118 10.939091,10.9634 l 0,0 c 0,6.0598 -4.892728,10.9634 -10.939091,10.9634 l -34.584546,0 8.983637,9.0118 c 4.270909,4.2804 4.270909,11.2176 0,15.5062 -4.270909,4.2804 -11.200909,4.2804 -15.471819,0 L 6,49.6835 41.394545,14.2103 l 0,0 z"
       id="path4247"
       inkscape:connector-curvature="0"
       style="fill:#7d7d7d;fill-opacity:1" />
  </g>
</svg>
