<svg xmlns="http://www.w3.org/2000/svg" xmlns:xlink="http://www.w3.org/1999/xlink" version="1.1" x="0px" y="0px" viewBox="0 0 100 125" style="enable-background:new 0 0 100 100;" xml:space="preserve"><path d="M4.3,12.6v44.5c0,2,1.7,3.7,3.7,3.7h13.4c2,0,3.7-1.7,3.7-3.7V12.6c0-2-1.7-3.7-3.7-3.7H8C5.9,8.9,4.3,10.6,4.3,12.6z   M95.7,54.3L95.7,54.3l0-20.4c0-1.7-0.9-3.8-1.6-4.7L82.6,14c-1.8-2.7-4.2-5.1-7.6-5.1H32.5c-1.8,0-3.2,1.5-3.2,3.2v46.6  c0,2.3,0.9,4.4,2.5,5.9L57,90.1c0.8,0.8,2,1.1,3.7,0.8c0,0,3.8-0.8,5.5-1.2c1.8-0.4,2.6-1.9,2.6-4.1s-6.9-19.3-6.9-19.3  c-0.4-1.8,1-3.4,2.8-3.4h22.7c4.6,0,8.3-3.7,8.3-8.3L95.7,54.3z"/><text x="0" y="115" fill="#000000" font-size="5px" font-weight="bold" font-family="'Helvetica Neue', Helvetica, Arial-Unicode, Arial, Sans-serif">Created by Ashwin Dinesh</text><text x="0" y="120" fill="#000000" font-size="5px" font-weight="bold" font-family="'Helvetica Neue', Helvetica, Arial-Unicode, Arial, Sans-serif">from the Noun Project</text></svg>