<svg xmlns="http://www.w3.org/2000/svg" xmlns:xlink="http://www.w3.org/1999/xlink" version="1.1" x="0px" y="0px" viewBox="0 0 100 125" style="enable-background:new 0 0 100 100;" xml:space="preserve"><path d="M8,91.4h13.4c2,0,3.7-1.7,3.7-3.7V43.2c0-2-1.7-3.7-3.7-3.7H8c-2,0-3.7,1.7-3.7,3.7v44.5C4.3,89.7,5.9,91.4,8,91.4z   M95.7,45.7c0-4.6-3.7-8.3-8.3-8.3H64.6c-1.8,0-3.1-1.6-2.8-3.4c0,0,6.9-17.1,6.9-19.3s-0.8-3.7-2.6-4.1c-1.8-0.4-5.5-1.2-5.5-1.2  C59,9.1,57.8,9.4,57,10.2L31.7,35.7c-1.5,1.5-2.5,3.6-2.5,5.9v46.6c0,1.8,1.5,3.2,3.2,3.2h42.5c3.4,0,5.8-2.4,7.6-5.1l11.5-15.2  c0.7-0.9,1.6-2.9,1.6-4.7V46.1l0,0L95.7,45.7z"/><text x="0" y="115" fill="#000000" font-size="5px" font-weight="bold" font-family="'Helvetica Neue', Helvetica, Arial-Unicode, Arial, Sans-serif">Created by Ashwin Dinesh</text><text x="0" y="120" fill="#000000" font-size="5px" font-weight="bold" font-family="'Helvetica Neue', Helvetica, Arial-Unicode, Arial, Sans-serif">from the Noun Project</text></svg>