<svg xmlns="http://www.w3.org/2000/svg" xmlns:xlink="http://www.w3.org/1999/xlink" viewBox="0 0 100 125" version="1.1" x="0px" y="0px"><title>tool-12 copy 3</title><desc>Created with Sketch.</desc><g stroke="none" stroke-width="1" fill="none" fill-rule="evenodd"><path d="M41.3945455,14.2103 C45.6654545,9.9299 52.5954545,9.9299 56.8663636,14.2103 C61.1372727,18.4907 61.1372727,25.4361 56.8663636,29.7165 L47.8827273,38.7201 L82.4672727,38.7201 C88.5136364,38.7201 93.4063636,43.6319 93.4063636,49.6835 L93.4063636,49.6835 C93.4063636,55.7433 88.5136364,60.6469 82.4672727,60.6469 L47.8827273,60.6469 L56.8663636,69.6587 C61.1372727,73.9391 61.1372727,80.8763 56.8663636,85.1649 C52.5954545,89.4453 45.6654545,89.4453 41.3945455,85.1649 L6,49.6835 L41.3945455,14.2103 L41.3945455,14.2103 Z" fill="#000000"/></g><text x="0" y="115" fill="#000000" font-size="5px" font-weight="bold" font-family="'Helvetica Neue', Helvetica, Arial-Unicode, Arial, Sans-serif">Created by Ben Iconator</text><text x="0" y="120" fill="#000000" font-size="5px" font-weight="bold" font-family="'Helvetica Neue', Helvetica, Arial-Unicode, Arial, Sans-serif">from the Noun Project</text></svg>