<?xml version="1.0" encoding="UTF-8" standalone="no"?>
<svg
   xmlns:dc="http://purl.org/dc/elements/1.1/"
   xmlns:cc="http://creativecommons.org/ns#"
   xmlns:rdf="http://www.w3.org/1999/02/22-rdf-syntax-ns#"
   xmlns:svg="http://www.w3.org/2000/svg"
   xmlns="http://www.w3.org/2000/svg"
   xmlns:sodipodi="http://sodipodi.sourceforge.net/DTD/sodipodi-0.dtd"
   xmlns:inkscape="http://www.inkscape.org/namespaces/inkscape"
   version="1.1"
   x="0px"
   y="0px"
   viewBox="0 0 100 100"
   xml:space="preserve"
   id="svg4177"
   inkscape:version="0.91 r13725"
   sodipodi:docname="thumb_down_red.svg"
   width="100"
   height="100"><metadata
     id="metadata4189"><rdf:RDF><cc:Work
         rdf:about=""><dc:format>image/svg+xml</dc:format><dc:type
           rdf:resource="http://purl.org/dc/dcmitype/StillImage" /><dc:title></dc:title></cc:Work></rdf:RDF></metadata><defs
     id="defs4187" /><sodipodi:namedview
     pagecolor="#ffffff"
     bordercolor="#666666"
     borderopacity="1"
     objecttolerance="10"
     gridtolerance="10"
     guidetolerance="10"
     inkscape:pageopacity="0"
     inkscape:pageshadow="2"
     inkscape:window-width="1924"
     inkscape:window-height="1161"
     id="namedview4185"
     showgrid="false"
     inkscape:zoom="7.624"
     inkscape:cx="50"
     inkscape:cy="62.5"
     inkscape:window-x="0"
     inkscape:window-y="0"
     inkscape:window-maximized="0"
     inkscape:current-layer="svg4177" /><path
     d="m 4.3,12.585887 0,44.5 c 0,2 1.7,3.7 3.7,3.7 l 13.4,0 c 2,0 3.7,-1.7 3.7,-3.7 l 0,-44.5 c 0,-2 -1.7,-3.7000005 -3.7,-3.7000005 l -13.4,0 c -2.1,0 -3.7,1.7000005 -3.7,3.7000005 z m 91.4,41.7 0,0 0,-20.4 c 0,-1.7 -0.9,-3.8 -1.6,-4.7 l -11.5,-15.2 c -1.8,-2.7 -4.2,-5.1000005 -7.6,-5.1000005 l -42.5,0 c -1.8,0 -3.2,1.5000005 -3.2,3.2000005 l 0,46.6 c 0,2.3 0.9,4.4 2.5,5.9 l 25.2,25.5 c 0.8,0.8 2,1.1 3.7,0.8 0,0 3.8,-0.8 5.5,-1.2 1.8,-0.4 2.6,-1.9 2.6,-4.1 0,-2.2 -6.9,-19.3 -6.9,-19.3 -0.4,-1.8 1,-3.4 2.8,-3.4 l 22.7,0 c 4.6,0 8.3,-3.7 8.3,-8.3 l 0,-0.3 z"
     id="path4179"
     inkscape:connector-curvature="0"
     style="fill:#c80000;fill-opacity:1" /></svg>