<?xml version="1.0" encoding="UTF-8" standalone="no"?>
<svg
   xmlns:dc="http://purl.org/dc/elements/1.1/"
   xmlns:cc="http://creativecommons.org/ns#"
   xmlns:rdf="http://www.w3.org/1999/02/22-rdf-syntax-ns#"
   xmlns:svg="http://www.w3.org/2000/svg"
   xmlns="http://www.w3.org/2000/svg"
   xmlns:sodipodi="http://sodipodi.sourceforge.net/DTD/sodipodi-0.dtd"
   xmlns:inkscape="http://www.inkscape.org/namespaces/inkscape"
   version="1.1"
   x="0px"
   y="0px"
   viewBox="0 0 100 100"
   xml:space="preserve"
   id="svg4959"
   inkscape:version="0.91 r13725"
   sodipodi:docname="thumb_up_green.svg"
   width="100"
   height="100"><metadata
     id="metadata4971"><rdf:RDF><cc:Work
         rdf:about=""><dc:format>image/svg+xml</dc:format><dc:type
           rdf:resource="http://purl.org/dc/dcmitype/StillImage" /><dc:title></dc:title></cc:Work></rdf:RDF></metadata><defs
     id="defs4969" /><sodipodi:namedview
     pagecolor="#ffffff"
     bordercolor="#666666"
     borderopacity="1"
     objecttolerance="10"
     gridtolerance="10"
     guidetolerance="10"
     inkscape:pageopacity="0"
     inkscape:pageshadow="2"
     inkscape:window-width="1847"
     inkscape:window-height="1155"
     id="namedview4967"
     showgrid="false"
     inkscape:zoom="1.888"
     inkscape:cx="50"
     inkscape:cy="62.5"
     inkscape:window-x="0"
     inkscape:window-y="0"
     inkscape:window-maximized="0"
     inkscape:current-layer="svg4959" /><path
     d="m 8,91 13.4,0 c 2,0 3.7,-1.7 3.7,-3.7 l 0,-44.5 c 0,-2 -1.7,-3.7 -3.7,-3.7 L 8,39.1 c -2,0 -3.7,1.7 -3.7,3.7 l 0,44.5 c 0,2 1.6,3.7 3.7,3.7 z M 95.7,45.3 C 95.7,40.7 92,37 87.4,37 l -22.8,0 c -1.8,0 -3.1,-1.6 -2.8,-3.4 0,0 6.9,-17.1 6.9,-19.3 0,-2.2 -0.8,-3.7 -2.6,-4.1 C 64.3,9.8 60.6,9 60.6,9 59,8.7 57.8,9 57,9.8 L 31.7,35.3 c -1.5,1.5 -2.5,3.6 -2.5,5.9 l 0,46.6 c 0,1.8 1.5,3.2 3.2,3.2 l 42.5,0 c 3.4,0 5.8,-2.4 7.6,-5.1 L 94,70.7 c 0.7,-0.9 1.6,-2.9 1.6,-4.7 l 0,-20.3 0,0 0.1,-0.4 z"
     id="path4961"
     inkscape:connector-curvature="0"
     style="fill:#00c800;fill-opacity:1" /></svg>